<svg width="118" height="93" viewBox="0 0 118 93" fill="none" xmlns="http://www.w3.org/2000/svg">
<path d="M83.7758 64.9763C84.5424 64.9763 85.3091 64.9763 86.0758 64.9763C86.0758 61.7308 86.0758 58.4854 86.0758 55.2399C86.0758 46.0214 86.0758 36.803 86.0758 27.5846C86.0815 25.9726 85.4184 24.3716 84.2745 23.2359C83.4644 22.4258 82.6543 21.6157 81.8442 20.8056C80.7061 19.6601 79.1052 18.9991 77.4922 19.0043C68.4122 19.0043 59.3427 19.0043 50.2662 19.0043C49.1463 19.0043 48.0282 19.0043 46.9076 19.0043C44.641 19.0043 42.3761 19.0043 40.1058 19.0043C38.4932 18.9989 36.8923 19.6607 35.755 20.8056C34.9449 21.6157 34.1348 22.4258 33.3248 23.2359C32.1808 24.3716 31.5177 25.9726 31.5235 27.5846C31.5235 40.0485 31.5235 52.5124 31.5235 64.9763C31.5177 66.5883 32.1808 68.1893 33.3248 69.325C34.1348 70.1351 34.9449 70.9452 35.755 71.7553C36.8908 72.8993 38.4917 73.5624 40.1037 73.5566C52.5677 73.5566 65.0316 73.5566 77.4955 73.5566C78.1327 73.5568 78.7701 73.4569 79.3767 73.2619C80.3031 72.965 81.1569 72.4439 81.8442 71.7553C82.6543 70.9452 83.4644 70.1351 84.2745 69.325C85.4184 68.1893 86.0815 66.5883 86.0758 64.9763C85.3091 64.9763 84.5424 64.9763 83.7758 64.9763C83.7794 65.9854 83.3642 66.9878 82.6481 67.6987C81.838 68.5088 81.028 69.3189 80.2179 70.129C79.7874 70.5601 79.2532 70.8862 78.6731 71.0721C78.2933 71.1942 77.8946 71.2567 77.4955 71.2566C65.0316 71.2566 52.5677 71.2566 40.1037 71.2566C39.0947 71.2603 38.0923 70.8451 37.3814 70.129C36.5713 69.3189 35.7612 68.5088 34.9511 67.6987C34.235 66.9878 33.8198 65.9854 33.8235 64.9763C33.8235 52.5124 33.8235 40.0485 33.8235 27.5846C33.8198 26.5755 34.235 25.5731 34.9511 24.8622C35.7612 24.0521 36.5713 23.242 37.3814 22.4319C38.092 21.7161 39.0963 21.3007 40.1058 21.3043C42.3761 21.3043 44.641 21.3043 46.9076 21.3043C48.0282 21.3043 49.1463 21.3043 50.2662 21.3043C59.3427 21.3043 68.4122 21.3043 77.4922 21.3043C78.502 21.3007 79.5074 21.7163 80.2179 22.4319C81.028 23.242 81.838 24.0521 82.6481 24.8622C83.3642 25.5731 83.7794 26.5755 83.7758 27.5846C83.7758 36.803 83.7758 46.0214 83.7758 55.2399C83.7758 58.4854 83.7758 61.7308 83.7758 64.9763ZM86.0758 64.9763H83.7758H86.0758Z" fill="#FF0000"/>
<path d="M32.6734 65.708H41.6055" stroke="#FF0000" stroke-width="2.3" stroke-linecap="round"/>
<path d="M32.6734 58.562H41.6055" stroke="#FF0000" stroke-width="2.3" stroke-linecap="round"/>
<path d="M43.3945 20.1549V11.6694" stroke="#FF0000" stroke-width="2.3" stroke-linecap="round"/>
<path d="M72.8672 20.1549V11.6694" stroke="#FF0000" stroke-width="2.3" stroke-linecap="round"/>
<path d="M84.9258 34.4463H76.4404" stroke="#FF0000" stroke-width="2.3" stroke-linecap="round"/>
<path d="M84.9258 27.3003H76.4404" stroke="#FF0000" stroke-width="2.3" stroke-linecap="round"/>
<path d="M72.8672 72.4077V81.3397" stroke="#FF0000" stroke-width="2.3" stroke-linecap="round"/>
<path d="M59.0234 72.4077V81.3397" stroke="#FF0000" stroke-width="2.3" stroke-linecap="round"/>
<path d="M84.9266 60.3486H87.0722C89.8337 60.3486 92.0723 62.5872 92.0723 65.3486V83.4845C92.0723 86.2459 94.3108 88.4845 97.0723 88.4845H97.4315M84.9266 39.3584L108.063 39.3584C110.824 39.3584 113.062 41.597 113.062 44.3584V51.4166" stroke="#FF0000" stroke-width="2.3" stroke-linecap="round"/>
<path d="M84.9263 50.0771H97.3437C100.105 50.0771 102.344 52.3157 102.344 55.0771L102.344 65.7082M43.3924 72.4072V81.3392M59.0234 20.1549V11.6694" stroke="#FF0000" stroke-width="2.3" stroke-linecap="round"/>
<path d="M32.6758 32.6595H30.5302C27.7687 32.6595 25.5302 30.4209 25.5302 27.6595L25.5302 9.88283C25.5302 7.16967 23.3307 4.97021 20.6176 4.97021V4.97021" stroke="#FF0000" stroke-width="2.3" stroke-linecap="round"/>
<path d="M32.6758 42.9316H20.7049C17.9435 42.9316 15.7049 40.6931 15.7049 37.9316V26.854" stroke="#FF0000" stroke-width="2.3" stroke-linecap="round"/>
<path d="M32.6758 53.6499H24.637" stroke="#FF0000" stroke-width="2.3" stroke-linecap="round"/>
<path d="M20.1719 53.6499H17.9389" stroke="#FF0000" stroke-width="2.3" stroke-linecap="round"/>
<path d="M13.0234 53.6508H9.53802C6.7766 53.6508 4.53802 51.4122 4.53802 48.6508L4.53802 41.146" stroke="#FF0000" stroke-width="2.3" stroke-linecap="round"/>
<path d="M74.6562 57.6696V57.6696C74.6562 60.1361 72.6567 62.1356 70.1902 62.1356H57.5235C56.1974 62.1356 54.9256 61.6088 53.9879 60.6711L44.8586 51.5418C43.921 50.6042 43.3942 49.3324 43.3942 48.0063V35.8735C43.3942 33.1121 45.6328 30.8735 48.3942 30.8735H60.0804C61.4064 30.8735 62.6782 31.4003 63.6159 32.338L73.1918 41.9139C74.1295 42.8516 74.6562 44.1234 74.6562 45.4494V53.2036" stroke="#FF0000" stroke-width="2.3" stroke-linecap="round"/>
<circle cx="113.061" cy="54.9894" r="3.31601" transform="rotate(90 113.061 54.9894)" stroke="#FF0000" stroke-width="2.3" stroke-linecap="round"/>
<circle cx="102.346" cy="70.174" r="3.31601" transform="rotate(90 102.346 70.174)" stroke="#FF0000" stroke-width="2.3" stroke-linecap="round"/>
<circle cx="101.004" cy="88.4847" r="2.86941" transform="rotate(90 101.004 88.4847)" stroke="#FF0000" stroke-width="2.3" stroke-linecap="round"/>
<circle cx="16.5965" cy="4.97041" r="3.31601" transform="rotate(90 16.5965 4.97041)" stroke="#FF0000" stroke-width="2.3" stroke-linecap="round"/>
<circle cx="15.7059" cy="22.8352" r="3.31601" transform="rotate(90 15.7059 22.8352)" stroke="#FF0000" stroke-width="2.3" stroke-linecap="round"/>
<circle cx="4.53918" cy="37.5731" r="2.86941" transform="rotate(90 4.53918 37.5731)" stroke="#FF0000" stroke-width="2.3" stroke-linecap="round"/>
<path d="M67.5117 45.165V47.8446M67.5117 51.8641V54.9903" stroke="#FF0000" stroke-width="2.3" stroke-linecap="round"/>
</svg>
