<svg width="92" height="117" viewBox="0 0 92 117" fill="none" xmlns="http://www.w3.org/2000/svg">
<path d="M64.4705 33.7521C64.4705 32.9854 64.4705 32.2187 64.4705 31.4521C61.225 31.4521 57.9795 31.4521 54.734 31.4521C45.5156 31.4521 36.2971 31.4521 27.0787 31.4521C25.4667 31.4463 23.8658 32.1094 22.73 33.2533C21.9199 34.0634 21.1098 34.8735 20.2997 35.6836C19.1542 36.8218 18.4932 38.4227 18.4984 40.0357C18.4984 49.1156 18.4984 58.1851 18.4984 67.2616C18.4984 68.3816 18.4984 69.4996 18.4984 70.6202C18.4984 72.8868 18.4984 75.1517 18.4984 77.422C18.493 79.0346 19.1548 80.6356 20.2997 81.7728C21.1098 82.5829 21.9199 83.393 22.73 84.2031C23.8658 85.347 25.4667 86.0101 27.0787 86.0044C39.5426 86.0044 52.0066 86.0044 64.4705 86.0044C66.0825 86.0101 67.6834 85.347 68.8192 84.2031C69.6293 83.393 70.4394 82.5829 71.2495 81.7728C72.3934 80.637 73.0565 79.0361 73.0508 77.4241C73.0508 64.9602 73.0508 52.4963 73.0508 40.0323C73.0509 39.3951 72.9511 38.7578 72.756 38.1512C72.4592 37.2247 71.938 36.371 71.2495 35.6836C70.4394 34.8735 69.6293 34.0634 68.8192 33.2533C67.6834 32.1094 66.0825 31.4463 64.4705 31.4521C64.4705 32.2187 64.4705 32.9854 64.4705 33.7521C65.4795 33.7484 66.4819 34.1636 67.1928 34.8797C68.0029 35.6898 68.813 36.4999 69.6231 37.31C70.0543 37.7404 70.3803 38.2746 70.5662 38.8547C70.6884 39.2346 70.7509 39.6332 70.7508 40.0323C70.7508 52.4963 70.7508 64.9602 70.7508 77.4241C70.7544 78.4331 70.3392 79.4355 69.6231 80.1465C68.813 80.9566 68.0029 81.7666 67.1928 82.5767C66.4819 83.2928 65.4795 83.708 64.4705 83.7044C52.0066 83.7044 39.5426 83.7044 27.0787 83.7044C26.0697 83.708 25.0673 83.2928 24.3564 82.5767C23.5463 81.7666 22.7362 80.9566 21.9261 80.1465C21.2103 79.4358 20.7948 78.4316 20.7984 77.422C20.7984 75.1517 20.7984 72.8868 20.7984 70.6202C20.7984 69.4996 20.7984 68.3816 20.7984 67.2616C20.7984 58.1851 20.7984 49.1156 20.7984 40.0357C20.7948 39.0258 21.2104 38.0205 21.9261 37.31C22.7362 36.4999 23.5463 35.6898 24.3564 34.8797C25.0673 34.1636 26.0697 33.7484 27.0787 33.7521C36.2971 33.7521 45.5156 33.7521 54.734 33.7521C57.9795 33.7521 61.225 33.7521 64.4705 33.7521ZM64.4705 31.4521V33.7521V31.4521Z" fill="#FF0000"/>
<path d="M65.2031 84.8539V75.9219" stroke="#FF0000" stroke-width="2.3" stroke-linecap="round"/>
<path d="M58.0586 84.8539V75.9219" stroke="#FF0000" stroke-width="2.3" stroke-linecap="round"/>
<path d="M19.6495 74.1357H11.1641" stroke="#FF0000" stroke-width="2.3" stroke-linecap="round"/>
<path d="M19.6495 44.6602H11.1641" stroke="#FF0000" stroke-width="2.3" stroke-linecap="round"/>
<path d="M33.9414 32.6021V41.0875" stroke="#FF0000" stroke-width="2.3" stroke-linecap="round"/>
<path d="M26.7969 32.6021V41.0875" stroke="#FF0000" stroke-width="2.3" stroke-linecap="round"/>
<path d="M71.9023 44.6602H80.8344" stroke="#FF0000" stroke-width="2.3" stroke-linecap="round"/>
<path d="M71.9023 58.5049H80.8344" stroke="#FF0000" stroke-width="2.3" stroke-linecap="round"/>
<path d="M59.8457 32.6022V30.4566C59.8457 27.6951 62.0843 25.4566 64.8457 25.4566H82.9816C85.743 25.4566 87.9816 23.218 87.9816 20.4566V20.0973M38.8555 32.6022V9.46631C38.8555 6.70488 41.094 4.46631 43.8555 4.46631H50.9137" stroke="#FF0000" stroke-width="2.3" stroke-linecap="round"/>
<path d="M49.5718 32.602V20.1846C49.5718 17.4231 51.8103 15.1846 54.5718 15.1846H65.2028M71.9018 74.1359H80.8338M19.6495 58.5049H11.1641" stroke="#FF0000" stroke-width="2.3" stroke-linecap="round"/>
<path d="M32.1541 84.8545V87.0001C32.1541 89.7615 29.9155 92.0001 27.1541 92.0001H9.37746C6.66429 92.0001 4.46484 94.1996 4.46484 96.9127V96.9127" stroke="#FF0000" stroke-width="2.3" stroke-linecap="round"/>
<path d="M42.4292 84.8545V96.8253C42.4292 99.5868 40.1906 101.825 37.4292 101.825H26.3516" stroke="#FF0000" stroke-width="2.3" stroke-linecap="round"/>
<path d="M53.1445 84.8545V92.8933" stroke="#FF0000" stroke-width="2.3" stroke-linecap="round"/>
<path d="M53.1445 97.3594V99.5924" stroke="#FF0000" stroke-width="2.3" stroke-linecap="round"/>
<path d="M53.1455 104.504V107.99C53.1455 110.751 50.9069 112.99 48.1455 112.99H40.6406" stroke="#FF0000" stroke-width="2.3" stroke-linecap="round"/>
<path d="M57.1633 42.874V42.874C59.6298 42.874 61.6293 44.8735 61.6293 47.34V60.0068C61.6293 61.3329 61.1025 62.6047 60.1648 63.5423L51.0355 72.6716C50.0978 73.6093 48.826 74.1361 47.5 74.1361H35.3672C32.6058 74.1361 30.3672 71.8975 30.3672 69.1361V57.4499C30.3672 56.1238 30.894 54.8521 31.8317 53.9144L41.4076 44.3385C42.3452 43.4008 43.617 42.874 44.9431 42.874H52.6972" stroke="#FF0000" stroke-width="2.3" stroke-linecap="round"/>
<circle cx="54.4855" cy="4.46601" r="3.31601" stroke="#FF0000" stroke-width="2.3" stroke-linecap="round"/>
<circle cx="69.6691" cy="15.1843" r="3.31601" stroke="#FF0000" stroke-width="2.3" stroke-linecap="round"/>
<circle cx="87.9803" cy="16.5243" r="2.86941" stroke="#FF0000" stroke-width="2.3" stroke-linecap="round"/>
<circle cx="4.46601" cy="100.932" r="3.31601" stroke="#FF0000" stroke-width="2.3" stroke-linecap="round"/>
<circle cx="22.3293" cy="101.825" r="3.31601" stroke="#FF0000" stroke-width="2.3" stroke-linecap="round"/>
<circle cx="37.0702" cy="112.99" r="2.86941" stroke="#FF0000" stroke-width="2.3" stroke-linecap="round"/>
<path d="M44.6602 50.019H47.3398M51.3592 50.019H54.4854" stroke="#FF0000" stroke-width="2.3" stroke-linecap="round"/>
</svg>
