<svg width="137" height="92" viewBox="0 0 137 92" fill="none" xmlns="http://www.w3.org/2000/svg">
<path d="M116.685 16.9714L120.385 20.6713C121.501 21.7881 121.608 23.5632 120.632 24.8051L117.738 28.4887C117.081 29.3237 116.046 29.7677 114.988 29.667L90.4734 27.3322C87.9183 27.0889 86.7336 24.0363 88.4556 22.133L92.164 18.0343C93.2385 16.8467 93.2393 15.0383 92.1657 13.8498L87.0059 8.13717C84.9003 5.8059 87.1178 2.34664 90.0734 3.41116C96.5783 5.75405 103.92 8.80418 108.456 11.8286" stroke="#FF0000" stroke-width="3.12" stroke-linecap="round"/>
<path d="M106.912 29.314L97.1406 40.6282" stroke="#FF0000" stroke-width="3.12" stroke-linecap="round"/>
<path d="M93.0261 15.9425H84.0327C83.2053 15.9425 82.4117 16.2712 81.8266 16.8564L71.8257 26.8573C71.2405 27.4424 70.447 27.7711 69.6195 27.7711H55.2327C54.4053 27.7711 53.6117 27.4424 53.0266 26.8573L47.6542 21.4849C47.0691 20.8998 46.7404 20.1062 46.7404 19.2788V14.434C46.7404 12.7108 45.3435 11.314 43.6204 11.314H21.2484C20.764 11.314 20.2863 11.4267 19.8531 11.6434L9.03051 17.0546C6.85123 18.1443 6.70607 21.1996 8.77222 22.491L19.753 29.354C20.2489 29.6639 20.8219 29.8282 21.4066 29.8282H35.4261" stroke="#FF0000" stroke-width="3.12" stroke-linecap="round"/>
<path d="M46.2344 11.8286L55.6302 20.2848C56.2031 20.8005 56.9466 21.0858 57.7173 21.0858H77.6058" stroke="#FF0000" stroke-width="3.12" stroke-linecap="round"/>
<path d="M6.11719 19.5435H23.8534C24.6809 19.5435 25.4745 19.8722 26.0596 20.4573L52.0034 46.4011C52.5885 46.9862 52.9172 47.7798 52.9172 48.6072V54.5149" stroke="#FF0000" stroke-width="3.12" stroke-linecap="round"/>
<path d="M35.4313 29.8291L31.2734 37.0291" stroke="#FF0000" stroke-width="3.12" stroke-linecap="round"/>
<path d="M61.1371 49.8849V46.0344C61.1371 45.2069 60.8083 44.4133 60.2232 43.8282L47.7656 31.3706" stroke="#FF0000" stroke-width="3.12" stroke-linecap="round"/>
<path d="M10.9332 37.4596C10.5843 37.6819 10.3379 38.0338 10.2484 38.4377C10.1589 38.8416 10.2334 39.2646 10.4558 39.6135C10.6781 39.9625 11.0299 40.2088 11.4338 40.2983C11.8377 40.3879 12.2607 40.3133 12.6096 40.091C12.6096 40.091 12.6096 40.091 12.6096 40.091C14.2245 39.0617 15.9908 38.2727 17.8344 37.7597C19.5401 37.2842 21.3108 37.0454 23.0857 37.0458C33.4847 36.7909 42.8663 46.1726 42.6114 56.5716C42.7705 65.4945 35.9673 73.9033 27.2327 75.6563C25.8727 75.9505 24.4804 76.0974 23.0857 76.0973C21.8256 76.0974 20.568 75.9776 19.3342 75.7375C10.4249 74.1483 3.39276 65.6348 3.56 56.5716C3.55924 54.5454 3.87144 52.5242 4.48982 50.5993C5.07408 48.7771 5.93117 47.0424 7.02201 45.4681C7.25759 45.128 7.34841 44.7082 7.27448 44.3012C7.20056 43.8941 6.96795 43.533 6.62783 43.2975C6.2877 43.0619 5.86793 42.9711 5.46085 43.045C5.05377 43.1189 4.69273 43.3515 4.45715 43.6917C4.45715 43.6917 4.45715 43.6917 4.45715 43.6917C3.19251 45.5167 2.19747 47.53 1.51902 49.646C0.800838 51.8809 0.438942 54.229 0.44 56.5716C0.251907 67.0844 8.39026 76.9514 18.7385 78.8001C20.1705 79.0788 21.6289 79.2174 23.0857 79.2173C24.6981 79.2175 26.3132 79.0474 27.892 78.7059C38.0368 76.6674 45.9103 66.9213 45.7314 56.5716C46.0227 44.5074 35.1499 33.6345 23.0857 33.9258C21.0337 33.9252 18.9777 34.2019 16.9974 34.7541C14.8564 35.3497 12.8057 36.2661 10.9332 37.4596Z" fill="#FF0000"/>
<path d="M13.2178 64.1235C11.9791 62.2535 11.2578 60.011 11.2578 57.6001C11.2578 51.0673 16.5536 45.7715 23.0864 45.7715C25.286 45.7715 27.3455 46.3719 29.1097 47.4178M16.4007 67.3593C18.3026 68.6647 20.6053 69.4286 23.0864 69.4286C29.6191 69.4286 34.915 64.1328 34.915 57.6001C34.915 55.3267 34.2736 53.2032 33.1621 51.4005" stroke="#FF0000" stroke-width="3.12" stroke-linecap="round"/>
<path d="M44.1719 54.5142H54.0206C54.3105 54.5142 54.599 54.5546 54.8777 54.6342L72.0374 59.537C72.3162 59.6166 72.6043 59.6621 72.8931 59.6365C75.3751 59.4167 80.7992 57.3643 85.829 50.3999" stroke="#FF0000" stroke-width="3.12" stroke-linecap="round"/>
<path d="M86.4489 33.335L115.38 52.9496C115.896 53.2991 116.309 53.7953 116.494 54.3898C118.047 59.3649 114.634 60.9448 112.175 61.1707C111.758 61.209 111.344 61.116 110.959 60.9525L78.6373 47.2402C77.967 46.9559 77.409 46.4438 77.0986 45.7851C71.7728 34.4836 79.7113 32.4218 85.085 32.8393C85.5761 32.8775 86.0412 33.0586 86.4489 33.335Z" stroke="#FF0000" stroke-width="3.12" stroke-linecap="round"/>
<path d="M92.7437 53.4858C92.596 54.493 92.5195 55.5234 92.5195 56.5716C92.5195 68.2169 101.96 77.6573 113.605 77.6573C125.251 77.6573 134.691 68.2169 134.691 56.5716C134.691 44.9262 125.251 35.4858 113.605 35.4858C107.873 35.4858 102.675 37.7733 98.8741 41.4851" stroke="#FF0000" stroke-width="3.12" stroke-linecap="round"/>
<path d="M101.77 57.086C101.77 63.6188 107.065 68.4003 113.598 68.4003C120.131 68.4003 125.427 63.1045 125.427 56.5717C125.427 50.039 120.131 44.7432 113.598 44.7432C111.053 44.7432 108.696 45.5467 106.767 46.9139" stroke="#FF0000" stroke-width="3.12" stroke-linecap="round"/>
<path d="M69.8867 78.686H134.172" stroke="#FF0000" stroke-width="3.12" stroke-linecap="round"/>
<path d="M54.4624 78.686H2.51953" stroke="#FF0000" stroke-width="3.12" stroke-linecap="round"/>
<path d="M15.375 90H79.6607" stroke="#FF0000" stroke-width="3.12" stroke-linecap="round"/>
</svg>
