<svg width="177" height="119" viewBox="0 0 177 119" fill="none" xmlns="http://www.w3.org/2000/svg">
<path d="M151.094 22.0629L156.491 27.4599C157.608 28.5767 157.714 30.3518 156.738 31.5937L152.147 37.4372C151.491 38.2723 150.455 38.7163 149.398 38.6156L115.163 35.3551C112.608 35.1118 111.423 32.0592 113.145 30.1559L119.785 22.8172C120.859 21.6295 120.86 19.8212 119.787 18.6326L110.307 8.13717C108.201 5.8059 110.43 2.31531 113.399 3.34092C122.521 6.49186 133.765 10.9557 140.397 15.3771" stroke="#FF0000" stroke-width="3.12" stroke-linecap="round"/>
<path d="M138.386 38.1079L125.684 52.8165" stroke="#FF0000" stroke-width="3.12" stroke-linecap="round"/>
<path d="M120.339 20.7252H108.26C107.432 20.7252 106.638 21.0539 106.053 21.639L92.5039 35.1885C91.9188 35.7736 91.1252 36.1023 90.2977 36.1023H70.8196C69.9921 36.1023 69.1985 35.7736 68.6134 35.1885L61.081 27.6561C60.4959 27.071 60.1672 26.2774 60.1672 25.4499V17.828C60.1672 16.1049 58.7703 14.708 57.0472 14.708H26.8066C26.3222 14.708 25.8445 14.8208 25.4113 15.0374L9.6516 22.9172C7.47233 24.0069 7.32716 27.0623 9.39331 28.3536L25.3113 38.3023C25.8071 38.6123 26.3801 38.7766 26.9649 38.7766H45.4586" stroke="#FF0000" stroke-width="3.12" stroke-linecap="round"/>
<path d="M59.5 15.3774L71.9815 26.6108C72.5544 27.1264 73.2979 27.4117 74.0687 27.4117H100.283" stroke="#FF0000" stroke-width="3.12" stroke-linecap="round"/>
<path d="M7.35156 25.4062H30.7964C31.6238 25.4062 32.4174 25.735 33.0025 26.3201L67.2777 60.5953C67.8628 61.1804 68.1916 61.974 68.1916 62.8015V70.8691" stroke="#FF0000" stroke-width="3.12" stroke-linecap="round"/>
<path d="M45.4599 38.7773L40.0547 48.1373" stroke="#FF0000" stroke-width="3.12" stroke-linecap="round"/>
<path d="M78.8829 64.8508V59.4574C78.8829 58.63 78.5541 57.8364 77.969 57.2513L61.5 40.7822" stroke="#FF0000" stroke-width="3.12" stroke-linecap="round"/>
<path d="M13.8646 49.092C13.5157 49.3143 13.2694 49.6661 13.1798 50.07C13.0903 50.474 13.1649 50.8969 13.3872 51.2459C13.6095 51.5948 13.9613 51.8411 14.3652 51.9307C14.7692 52.0202 15.1921 51.9456 15.5411 51.7233C15.5411 51.7233 15.5411 51.7233 15.5411 51.7233C17.679 50.3606 20.0178 49.3158 22.4592 48.6365C24.7177 48.0069 27.0625 47.6907 29.4114 47.6913C43.1798 47.3545 55.5997 59.7744 55.2629 73.5428C55.4726 85.3566 46.4679 96.4886 34.9014 98.8104C33.1005 99.2 31.2571 99.3944 29.4114 99.3942C27.7438 99.3944 26.0788 99.2358 24.4451 98.9179C12.6472 96.813 3.33945 85.5424 3.56 73.5428C3.55896 70.8613 3.97228 68.1847 4.79114 65.6358C5.56481 63.2229 6.69972 60.926 8.14389 58.8419C8.37947 58.5017 8.47028 58.082 8.39636 57.6749C8.32243 57.2678 8.08982 56.9068 7.7497 56.6712C7.40958 56.4356 6.98981 56.3448 6.58273 56.4187C6.17565 56.4927 5.81461 56.7253 5.57903 57.0654C3.96106 59.4003 2.6882 61.9758 1.82034 64.6826C0.901679 67.5415 0.438669 70.5449 0.44 73.5428C0.198604 86.992 10.6125 99.6161 23.8494 101.981C25.6812 102.337 27.5471 102.514 29.4114 102.514C31.4748 102.515 33.5411 102.297 35.5607 101.86C48.5374 99.2528 58.6124 86.7835 58.3829 73.5428C58.7561 58.1092 44.845 44.1981 29.4114 44.5713C26.7854 44.5706 24.1554 44.9246 21.6221 45.6309C18.8835 46.3929 16.2602 47.565 13.8646 49.092Z" fill="#FF0000"/>
<path d="M16.5831 83.3611C14.9729 80.9301 14.0352 78.0148 14.0352 74.8806C14.0352 66.388 20.9197 59.5034 29.4123 59.5034C32.2719 59.5034 34.9491 60.284 37.2426 61.6436M20.7209 87.5676C23.1934 89.2646 26.1869 90.2577 29.4123 90.2577C37.9049 90.2577 44.7894 83.3731 44.7894 74.8806C44.7894 71.9252 43.9557 69.1646 42.5107 66.8211" stroke="#FF0000" stroke-width="3.12" stroke-linecap="round"/>
<path d="M56.8242 70.8686H69.7587C70.0486 70.8686 70.3371 70.909 70.6158 70.9886L93.1755 77.4343C93.4542 77.5139 93.7398 77.5586 94.0289 77.5382C97.1914 77.3151 104.348 74.7002 110.979 65.52" stroke="#FF0000" stroke-width="3.12" stroke-linecap="round"/>
<path d="M111.597 43.2088L149.631 68.9948C150.147 69.3443 150.556 69.8413 150.753 70.4321C153.028 77.2467 148.289 79.3042 145.039 79.5368C144.621 79.5666 144.206 79.4755 143.821 79.312L101.317 61.2797C100.646 60.9953 100.086 60.475 99.7698 59.8191C92.4881 44.7059 103.199 42.0878 110.232 42.709C110.723 42.7523 111.189 42.9323 111.597 43.2088Z" stroke="#FF0000" stroke-width="3.12" stroke-linecap="round"/>
<path d="M119.963 69.5313C119.771 70.8407 119.672 72.1801 119.672 73.5428C119.672 88.6817 131.944 100.954 147.083 100.954C162.222 100.954 174.495 88.6817 174.495 73.5428C174.495 58.4039 162.222 46.1313 147.083 46.1313C139.631 46.1313 132.874 49.105 127.933 53.9304" stroke="#FF0000" stroke-width="3.12" stroke-linecap="round"/>
<path d="M131.699 74.2112C131.699 82.7038 138.584 88.9198 147.076 88.9198C155.569 88.9198 162.454 82.0352 162.454 73.5427C162.454 65.0501 155.569 58.1655 147.076 58.1655C143.768 58.1655 140.704 59.2101 138.196 60.9875" stroke="#FF0000" stroke-width="3.12" stroke-linecap="round"/>
<path d="M90.25 102.292H173.821" stroke="#FF0000" stroke-width="3.12" stroke-linecap="round"/>
<path d="M70.1976 102.292H2.67188" stroke="#FF0000" stroke-width="3.12" stroke-linecap="round"/>
<path d="M19.3867 117H102.958" stroke="#FF0000" stroke-width="3.12" stroke-linecap="round"/>
</svg>
