<svg width="108" height="108" viewBox="0 0 108 108" fill="none" xmlns="http://www.w3.org/2000/svg">
<path d="M39.6543 82.6885L69.2813 67.2201" stroke="#FF0000" stroke-width="3" stroke-linecap="round"/>
<path d="M80.4798 60.9814L85.8047 58.1501" stroke="#FF0000" stroke-width="3" stroke-linecap="round"/>
<path d="M22.5485 50.5171L39.3005 82.023C40.4081 84.1061 39.6173 86.6927 37.5341 87.8004C35.451 88.908 32.8644 88.1172 31.7568 86.034L15.0048 54.5282C13.8972 52.4451 14.688 49.8584 16.7711 48.7508C18.8543 47.6432 21.4409 48.434 22.5485 50.5171Z" stroke="#FF0000" stroke-width="3" stroke-linecap="round"/>
<path d="M14.4141 53.4185L10.0303 55.7494C8.85942 56.3719 7.98383 57.4341 7.59612 58.7023L6.52135 62.2177C6.13364 63.4858 6.26557 64.856 6.88813 66.0269L17.6844 86.3318C18.307 87.5027 19.3692 88.3783 20.6373 88.766L23.8129 89.7368C25.081 90.1246 26.4513 89.9926 27.6221 89.3701L32.0059 87.0392" stroke="#FF0000" stroke-width="3" stroke-linecap="round"/>
<path d="M6.25476 64.3018L12.0906 66.086C13.3587 66.4737 14.729 66.3417 15.8998 65.7192L19.8398 63.6242" stroke="#FF0000" stroke-width="3" stroke-linecap="round"/>
<path d="M18.7619 87.8203L20.4422 82.3243C20.8299 81.0562 21.7055 79.994 22.8764 79.3714L26.8164 77.2765" stroke="#FF0000" stroke-width="3" stroke-linecap="round"/>
<path d="M22.1943 49.8511L68.3438 25.313" stroke="#FF0000" stroke-width="3" stroke-linecap="round"/>
<path d="M70.2282 19.7572L70.0063 19.8752C68.0457 20.9176 67.3014 23.3521 68.3439 25.3127L85.4498 57.4841C86.5574 59.5673 89.144 60.3581 91.2271 59.2504C93.3102 58.1428 94.101 55.5562 92.9934 53.4731L76.0055 21.5235C74.8979 19.4404 72.3113 18.6496 70.2282 19.7572Z" stroke="#FF0000" stroke-width="3" stroke-linecap="round"/>
<path d="M93.3466 54.1392L98.1741 51.5724C99.345 50.9498 100.221 49.8877 100.608 48.6195L101.787 44.7643C102.175 43.4961 102.043 42.1259 101.42 40.955L91.3317 21.9814C90.7091 20.8105 89.6469 19.9349 88.3788 19.5472L84.0878 18.2353C82.8767 17.865 81.5702 17.9681 80.4321 18.5238L75.6509 20.8584" stroke="#FF0000" stroke-width="3" stroke-linecap="round"/>
<path d="M102.051 42.6794L96.8946 41.103C95.6265 40.7153 94.2563 40.8472 93.0854 41.4698L88.2579 44.0366" stroke="#FF0000" stroke-width="3" stroke-linecap="round"/>
<path d="M90.2578 20.4926L88.6814 25.6487C88.2937 26.9169 87.4181 27.9791 86.2473 28.6016L81.4197 31.1685" stroke="#FF0000" stroke-width="3" stroke-linecap="round"/>
<path d="M44.0173 54.5858L47.1375 60.2681L63.7096 51.7407" stroke="#FF0000" stroke-width="3" stroke-linecap="round"/>
</svg>
