<svg width="90" height="90" viewBox="0 0 90 90" fill="none" xmlns="http://www.w3.org/2000/svg">
<path d="M39.668 76.6279L63.4779 53.1733" stroke="#FF0000" stroke-width="3" stroke-linecap="round"/>
<path d="M72.3633 43.9339L76.6277 39.6694" stroke="#FF0000" stroke-width="3" stroke-linecap="round"/>
<path d="M13.9057 50.8639L39.1371 76.0953C40.8054 77.7636 40.8054 80.4684 39.1371 82.1367C37.4689 83.8049 34.7641 83.8049 33.0958 82.1367L7.86441 56.9052C6.19615 55.237 6.19615 52.5322 7.86441 50.8639C9.53268 49.1957 12.2375 49.1957 13.9057 50.8639Z" stroke="#FF0000" stroke-width="3" stroke-linecap="round"/>
<path d="M6.97521 56.0166L3.46446 59.5273C2.52678 60.465 2 61.7368 2 63.0629V66.7389C2 68.065 2.52678 69.3368 3.46447 70.2745L19.7256 86.5356C20.6633 87.4733 21.9351 88.0001 23.2612 88.0001H26.5818C27.9079 88.0001 29.1797 87.4733 30.1174 86.5356L33.6281 83.0249" stroke="#FF0000" stroke-width="3" stroke-linecap="round"/>
<path d="M2.35547 68.8098H8.45796C9.78404 68.8098 11.0558 68.283 11.9935 67.3453L15.1489 64.1899" stroke="#FF0000" stroke-width="3" stroke-linecap="round"/>
<path d="M21.1914 87.6446V81.8974C21.1914 80.5714 21.7182 79.2996 22.6559 78.3619L25.8112 75.2065" stroke="#FF0000" stroke-width="3" stroke-linecap="round"/>
<path d="M13.3711 50.3303L50.3298 13.3716" stroke="#FF0000" stroke-width="3" stroke-linecap="round"/>
<path d="M50.5089 7.50797L50.3313 7.68565C48.7611 9.25578 48.7611 11.8015 50.3313 13.3716L76.0957 39.1361C77.764 40.8043 80.4688 40.8043 82.137 39.1361C83.8053 37.4678 83.8053 34.763 82.137 33.0947L56.5503 7.50797C54.882 5.8397 52.1772 5.8397 50.5089 7.50797Z" stroke="#FF0000" stroke-width="3" stroke-linecap="round"/>
<path d="M82.6685 33.6281L86.5346 29.762C87.4723 28.8243 87.9991 27.5525 87.9991 26.2265V22.195C87.9991 20.869 87.4723 19.5972 86.5346 18.6595L71.3396 3.46447C70.4019 2.52678 69.1301 2 67.8041 2H63.317C62.0506 2 60.8313 2.48059 59.9054 3.34472L56.0156 6.97521" stroke="#FF0000" stroke-width="3" stroke-linecap="round"/>
<path d="M87.645 20.124H82.2532C80.9271 20.124 79.6554 20.6508 78.7177 21.5885L74.8516 25.4546" stroke="#FF0000" stroke-width="3" stroke-linecap="round"/>
<path d="M69.8775 2.35498V7.74672C69.8775 9.07281 69.3507 10.3446 68.413 11.2823L64.5469 15.1484" stroke="#FF0000" stroke-width="3" stroke-linecap="round"/>
<path d="M35.625 48.4783L40.2702 53L53.625 40" stroke="#FF0000" stroke-width="3" stroke-linecap="round"/>
</svg>
